<svg xmlns="http://www.w3.org/2000/svg" width="28.721" height="28.720" viewBox="0 0 28.721 28.720" fill="currentColor">
  <path d="M 27.36 28.72 C 26.735 28.72 26.207 28.295 26.048 27.72 L 15.672 27.72 C 15.514 28.295 14.986 28.72 14.36 28.72 C 13.61 28.72 13 28.11 13 27.36 C 13 27.116 13.065 26.885 13.178 26.687 L 7.86 21.369 L 2.542 26.687 C 2.655 26.885 2.72 27.116 2.72 27.36 C 2.72 28.11 2.11 28.72 1.36 28.72 C 0.61 28.72 0 28.11 0 27.36 C 0 26.61 0.61 26 1.36 26 C 1.605 26 1.834 26.065 2.033 26.179 L 7.351 20.86 L 2.033 15.542 C 1.834 15.655 1.605 15.72 1.36 15.72 C 0.61 15.72 0 15.11 0 14.36 C 0 13.61 0.61 13 1.36 13 C 1.605 13 1.834 13.065 2.033 13.178 L 13.178 2.033 C 13.065 1.834 13 1.605 13 1.36 C 13 0.61 13.61 0 14.36 0 C 15.11 0 15.72 0.61 15.72 1.36 C 15.72 1.605 15.655 1.834 15.541 2.033 L 26.687 13.179 C 26.885 13.066 27.116 13.001 27.36 13.001 C 28.11 13.001 28.72 13.611 28.72 14.361 C 28.72 15.111 28.11 15.721 27.36 15.721 C 26.735 15.721 26.207 15.296 26.048 14.721 L 15.672 14.721 C 15.514 15.297 14.986 15.721 14.36 15.721 C 14.115 15.721 13.886 15.656 13.687 15.542 L 8.369 20.86 L 13.687 26.178 C 13.886 26.065 14.115 25.999 14.36 25.999 C 14.985 25.999 15.513 26.424 15.672 26.999 L 26.049 26.999 C 26.207 26.424 26.736 25.999 27.361 25.999 C 28.111 25.999 28.721 26.609 28.721 27.359 C 28.721 28.109 28.11 28.72 27.36 28.72 Z M 27.36 26.72 C 27.007 26.72 26.72 27.007 26.72 27.36 C 26.72 27.713 27.007 28 27.36 28 C 27.713 28 28 27.713 28 27.36 C 28 27.007 27.713 26.72 27.36 26.72 Z M 14.36 26.72 C 14.007 26.72 13.72 27.007 13.72 27.36 C 13.72 27.713 14.007 28 14.36 28 C 14.713 28 15 27.713 15 27.36 C 15 27.007 14.713 26.72 14.36 26.72 Z M 1.36 26.72 C 1.007 26.72 0.72 27.007 0.72 27.36 C 0.72 27.713 1.007 28 1.36 28 C 1.713 28 2 27.713 2 27.36 C 2 27.007 1.713 26.72 1.36 26.72 Z M 2.542 15.033 L 7.86 20.351 L 13.178 15.033 C 13.065 14.834 13 14.605 13 14.36 C 13 13.61 13.61 13 14.36 13 C 14.985 13 15.513 13.424 15.672 14 L 26.049 14 C 26.079 13.89 26.123 13.785 26.179 13.687 L 15.033 2.542 C 14.636 2.769 14.085 2.769 13.687 2.542 L 2.542 13.687 C 2.655 13.886 2.72 14.115 2.72 14.36 C 2.72 14.605 2.655 14.834 2.542 15.033 Z M 27.36 13.72 C 27.007 13.72 26.72 14.007 26.72 14.36 C 26.72 14.713 27.007 15 27.36 15 C 27.713 15 28 14.713 28 14.36 C 28 14.007 27.713 13.72 27.36 13.72 Z M 14.36 13.72 C 14.007 13.72 13.72 14.007 13.72 14.36 C 13.72 14.713 14.007 15 14.36 15 C 14.713 15 15 14.713 15 14.36 C 15 14.007 14.713 13.72 14.36 13.72 Z M 1.36 13.72 C 1.007 13.72 0.72 14.007 0.72 14.36 C 0.72 14.713 1.007 15 1.36 15 C 1.713 15 2 14.713 2 14.36 C 2 14.007 1.713 13.72 1.36 13.72 Z M 14.36 0.72 C 14.007 0.72 13.72 1.007 13.72 1.36 C 13.72 1.713 14.007 2 14.36 2 C 14.713 2 15 1.713 15 1.36 C 15 1.007 14.713 0.72 14.36 0.72 Z M 27.36 2.72 C 26.61 2.72 26 2.11 26 1.36 C 26 0.61 26.61 0 27.36 0 C 28.11 0 28.72 0.61 28.72 1.36 C 28.72 2.11 28.11 2.72 27.36 2.72 Z M 27.36 0.72 C 27.007 0.72 26.72 1.007 26.72 1.36 C 26.72 1.713 27.007 2 27.36 2 C 27.713 2 28 1.713 28 1.36 C 28 1.007 27.713 0.72 27.36 0.72 Z M 1.36 2.72 C 0.61 2.72 0 2.11 0 1.36 C 0 0.61 0.61 0 1.36 0 C 2.11 0 2.72 0.61 2.72 1.36 C 2.72 2.11 2.11 2.72 1.36 2.72 Z M 1.36 0.72 C 1.007 0.72 0.72 1.007 0.72 1.36 C 0.72 1.713 1.007 2 1.36 2 C 1.713 2 2 1.713 2 1.36 C 2 1.007 1.713 0.72 1.36 0.72 Z" fill="currentColor" fill-rule="nonzero"></path>
</svg>