<svg xmlns="http://www.w3.org/2000/svg" width="30.720" height="28.720" viewBox="0 0 30.720 28.720" fill="currentColor">
  <path d="M 28.36 1.86 C 28.36 2.136 28.136 2.36 27.86 2.36 C 27.584 2.36 27.36 2.136 27.36 1.86 C 27.36 1.584 27.584 1.36 27.86 1.36 C 28.136 1.36 28.36 1.584 28.36 1.86 Z M 25.86 1.36 C 25.584 1.36 25.36 1.584 25.36 1.86 C 25.36 2.136 25.584 2.36 25.86 2.36 C 26.136 2.36 26.36 2.136 26.36 1.86 C 26.36 1.584 26.136 1.36 25.86 1.36 Z M 23.86 1.36 C 23.584 1.36 23.36 1.584 23.36 1.86 C 23.36 2.136 23.584 2.36 23.86 2.36 C 24.136 2.36 24.36 2.136 24.36 1.86 C 24.36 1.584 24.136 1.36 23.86 1.36 Z M 30.36 28.72 L 0.36 28.72 C 0.161 28.72 0 28.559 0 28.36 L 0 0.36 C 0 0.161 0.161 0 0.36 0 L 30.36 0 C 30.559 0 30.72 0.161 30.72 0.36 L 30.72 28.36 C 30.72 28.559 30.559 28.72 30.36 28.72 Z M 8.72 28 L 30 28 L 30 3.72 L 8.72 3.72 L 8.72 28 Z M 0.72 28 L 8 28 L 8 3.72 L 0.72 3.72 L 0.72 28 Z M 8.36 3 L 30 3 L 30 0.72 L 0.72 0.72 L 0.72 3 L 8.36 3 Z" fill="currentColor" fill-rule="nonzero"></path>
</svg>