<svg xmlns="http://www.w3.org/2000/svg" width="28.720" height="30.360" viewBox="0 0 28.720 30.360" fill="currentColor">
  <path d="M 28.36 30.36 L 0.36 30.36 C 0.161 30.36 0 30.199 0 30 L 0 3 C 0 2.801 0.161 2.64 0.36 2.64 L 6 2.64 L 6 0 L 6.72 0 L 6.72 2.64 L 14 2.64 L 14 0 L 14.72 0 L 14.72 2.64 L 22 2.64 L 22 0 L 22.721 0 L 22.721 2.64 L 28.36 2.64 C 28.559 2.64 28.72 2.801 28.72 3 L 28.72 30 C 28.72 30.199 28.559 30.36 28.36 30.36 Z M 0.72 29.64 L 28 29.64 L 28 3.36 L 22.72 3.36 L 22.72 6 L 22 6 L 22 3.36 L 14.72 3.36 L 14.72 6 L 14 6 L 14 3.36 L 6.72 3.36 L 6.72 6 L 6 6 L 6 3.36 L 0.72 3.36 L 0.72 29.64 Z M 23.36 26.36 L 21.36 26.36 C 21.161 26.36 21 26.199 21 26 L 21 24 C 21 23.801 21.161 23.64 21.36 23.64 L 23.36 23.64 C 23.559 23.64 23.72 23.801 23.72 24 L 23.72 26 C 23.72 26.199 23.559 26.36 23.36 26.36 Z M 21.72 25.64 L 22.999 25.64 L 22.999 24.36 L 21.72 24.36 L 21.72 25.64 Z M 15.36 26.36 L 13.36 26.36 C 13.161 26.36 13 26.199 13 26 L 13 24 C 13 23.801 13.161 23.64 13.36 23.64 L 15.36 23.64 C 15.559 23.64 15.72 23.801 15.72 24 L 15.72 26 C 15.72 26.199 15.559 26.36 15.36 26.36 Z M 13.72 25.64 L 15 25.64 L 15 24.36 L 13.72 24.36 L 13.72 25.64 L 13.72 25.64 Z M 7.36 26.36 L 5.36 26.36 C 5.161 26.36 5 26.199 5 26 L 5 24 C 5 23.801 5.161 23.64 5.36 23.64 L 7.36 23.64 C 7.559 23.64 7.72 23.801 7.72 24 L 7.72 26 C 7.72 26.199 7.559 26.36 7.36 26.36 Z M 5.72 25.64 L 7 25.64 L 7 24.36 L 5.72 24.36 L 5.72 25.64 Z M 23.36 19.36 L 21.36 19.36 C 21.161 19.36 21 19.199 21 19 L 21 17 C 21 16.801 21.161 16.64 21.36 16.64 L 23.36 16.64 C 23.559 16.64 23.72 16.801 23.72 17 L 23.72 19 C 23.72 19.199 23.559 19.36 23.36 19.36 Z M 21.72 18.64 L 22.999 18.64 L 22.999 17.36 L 21.72 17.36 L 21.72 18.64 Z M 15.36 19.36 L 13.36 19.36 C 13.161 19.36 13 19.199 13 19 L 13 17 C 13 16.801 13.161 16.64 13.36 16.64 L 15.36 16.64 C 15.559 16.64 15.72 16.801 15.72 17 L 15.72 19 C 15.72 19.199 15.559 19.36 15.36 19.36 Z M 13.72 18.64 L 15 18.64 L 15 17.36 L 13.72 17.36 L 13.72 18.64 L 13.72 18.64 Z M 7.36 19.36 L 5.36 19.36 C 5.161 19.36 5 19.199 5 19 L 5 17 C 5 16.801 5.161 16.64 5.36 16.64 L 7.36 16.64 C 7.559 16.64 7.72 16.801 7.72 17 L 7.72 19 C 7.72 19.199 7.559 19.36 7.36 19.36 Z M 5.72 18.64 L 7 18.64 L 7 17.36 L 5.72 17.36 L 5.72 18.64 Z M 23.36 12.36 L 21.36 12.36 C 21.161 12.36 21 12.199 21 12 L 21 10 C 21 9.801 21.161 9.64 21.36 9.64 L 23.36 9.64 C 23.559 9.64 23.72 9.801 23.72 10 L 23.72 12 C 23.72 12.199 23.559 12.36 23.36 12.36 Z M 21.72 11.64 L 22.999 11.64 L 22.999 10.36 L 21.72 10.36 L 21.72 11.64 Z M 15.36 12.36 L 13.36 12.36 C 13.161 12.36 13 12.199 13 12 L 13 10 C 13 9.801 13.161 9.64 13.36 9.64 L 15.36 9.64 C 15.559 9.64 15.72 9.801 15.72 10 L 15.72 12 C 15.72 12.199 15.559 12.36 15.36 12.36 Z M 13.72 11.64 L 15 11.64 L 15 10.36 L 13.72 10.36 L 13.72 11.64 L 13.72 11.64 Z M 7.36 12.36 L 5.36 12.36 C 5.161 12.36 5 12.199 5 12 L 5 10 C 5 9.801 5.161 9.64 5.36 9.64 L 7.36 9.64 C 7.559 9.64 7.72 9.801 7.72 10 L 7.72 12 C 7.72 12.199 7.559 12.36 7.36 12.36 Z M 5.72 11.64 L 7 11.64 L 7 10.36 L 5.72 10.36 L 5.72 11.64 Z" fill="currentColor" fill-rule="nonzero"></path>
</svg>