<svg xmlns="http://www.w3.org/2000/svg" width="26.720" height="30.720" viewBox="0 0 26.720 30.720" fill="currentColor">
  <path d="M 13.36 30.72 C 12.61 30.72 12 30.11 12 29.36 C 12 29.239 12.016 29.122 12.045 29.01 L 2.31 23.331 C 2.066 23.572 1.73 23.72 1.36 23.72 C 0.61 23.72 0 23.11 0 22.36 C 0 21.735 0.424 21.207 1 21.048 L 1 9.672 C 0.424 9.514 0 8.986 0 8.36 C 0 7.61 0.61 7 1.36 7 C 1.73 7 2.066 7.148 2.311 7.388 L 12.046 1.71 C 12.016 1.598 12 1.481 12 1.36 C 12 0.61 12.61 0 13.36 0 C 14.11 0 14.72 0.61 14.72 1.36 C 14.72 1.481 14.703 1.598 14.674 1.71 L 24.408 7.389 C 24.654 7.149 24.99 7 25.36 7 C 26.11 7 26.72 7.61 26.72 8.36 C 26.72 8.985 26.295 9.513 25.72 9.672 L 25.72 21.049 C 26.295 21.207 26.72 21.736 26.72 22.361 C 26.72 23.111 26.11 23.721 25.36 23.721 C 24.99 23.721 24.654 23.573 24.409 23.332 L 14.675 29.011 C 14.704 29.122 14.721 29.24 14.721 29.361 C 14.72 30.11 14.11 30.72 13.36 30.72 Z M 13.36 28.72 C 13.007 28.72 12.72 29.007 12.72 29.36 C 12.72 29.713 13.007 30 13.36 30 C 13.713 30 14 29.713 14 29.36 C 14 29.007 13.713 28.72 13.36 28.72 Z M 2.674 22.71 L 12.381 28.372 L 7.228 19.354 L 2.674 22.01 C 2.704 22.122 2.72 22.239 2.72 22.36 C 2.72 22.481 2.704 22.598 2.674 22.71 Z M 19.492 19.354 L 14.339 28.372 L 24.046 22.71 C 24.017 22.599 24 22.481 24 22.36 C 24 22.239 24.017 22.122 24.046 22.01 L 19.492 19.354 Z M 13.36 28 C 13.477 28 13.59 28.015 13.698 28.043 L 18.87 18.992 L 14.31 16.332 C 13.819 16.812 12.899 16.813 12.408 16.332 L 7.849 18.992 L 13.021 28.044 C 13.13 28.014 13.243 28 13.36 28 Z M 25.36 21.72 C 25.007 21.72 24.72 22.007 24.72 22.36 C 24.72 22.713 25.007 23 25.36 23 C 25.713 23 26 22.713 26 22.36 C 26 22.007 25.713 21.72 25.36 21.72 Z M 1.36 21.72 C 1.007 21.72 0.72 22.007 0.72 22.36 C 0.72 22.713 1.007 23 1.36 23 C 1.713 23 2 22.713 2 22.36 C 2 22.007 1.713 21.72 1.36 21.72 Z M 19.849 18.729 L 24.409 21.388 C 24.572 21.229 24.774 21.11 25 21.048 L 25 9.715 L 19.849 18.729 Z M 1.72 21.048 C 1.946 21.11 2.148 21.229 2.311 21.388 L 6.871 18.729 L 1.721 9.715 L 1.72 21.048 Z M 14.674 15.71 L 19.227 18.366 L 24.397 9.32 C 24.233 9.156 24.112 8.95 24.048 8.72 L 13.72 8.72 L 13.72 14.049 C 14.296 14.207 14.72 14.735 14.72 15.361 C 14.72 15.481 14.704 15.598 14.674 15.71 Z M 2.323 9.319 L 7.492 18.365 L 12.045 15.709 C 12.015 15.598 12 15.48 12 15.359 C 12 14.734 12.424 14.206 13 14.047 L 13 8.72 L 2.672 8.72 C 2.609 8.95 2.486 9.155 2.323 9.319 Z M 13.36 14.72 C 13.007 14.72 12.72 15.007 12.72 15.36 C 12.72 15.713 13.007 16 13.36 16 C 13.713 16 14 15.713 14 15.36 C 14 15.007 13.713 14.72 13.36 14.72 Z M 25.36 7.72 C 25.007 7.72 24.72 8.007 24.72 8.36 C 24.72 8.713 25.007 9 25.36 9 C 25.713 9 26 8.713 26 8.36 C 26 8.007 25.713 7.72 25.36 7.72 Z M 1.36 7.72 C 1.007 7.72 0.72 8.007 0.72 8.36 C 0.72 8.713 1.007 9 1.36 9 C 1.713 9 2 8.713 2 8.36 C 2 8.007 1.713 7.72 1.36 7.72 Z M 13.72 8 L 24.028 8 L 14.311 2.332 C 14.148 2.491 13.946 2.61 13.72 2.672 L 13.72 8 Z M 2.692 8 L 13 8 L 13 2.672 C 12.774 2.61 12.572 2.491 12.409 2.332 L 2.692 8 Z M 13.36 0.72 C 13.007 0.72 12.72 1.007 12.72 1.36 C 12.72 1.713 13.007 2 13.36 2 C 13.713 2 14 1.713 14 1.36 C 14 1.007 13.713 0.72 13.36 0.72 Z" fill="currentColor" fill-rule="nonzero"></path>
</svg>