<svg xmlns="http://www.w3.org/2000/svg" width="30" height="25.721" viewBox="0 0 30 25.721" fill="currentColor">
  <path d="M 5.36 21.36 C 5.36 20.058 4.301 19 3 19 C 1.699 19 0.64 20.058 0.64 21.36 C 0.64 22.662 1.699 23.72 3 23.72 C 4.301 23.72 5.36 22.662 5.36 21.36 Z M 1.36 21.36 C 1.36 20.456 2.096 19.72 3 19.72 C 3.904 19.72 4.64 20.456 4.64 21.36 C 4.64 22.264 3.904 23 3 23 C 2.096 23 1.36 22.264 1.36 21.36 Z M 13.36 21.36 C 13.36 20.058 12.301 19 11 19 C 9.699 19 8.64 20.058 8.64 21.36 C 8.64 22.662 9.699 23.72 11 23.72 C 12.301 23.72 13.36 22.662 13.36 21.36 Z M 9.36 21.36 C 9.36 20.456 10.096 19.72 11 19.72 C 11.904 19.72 12.64 20.455 12.64 21.36 C 12.64 22.265 11.904 23 11 23 C 10.096 23 9.36 22.264 9.36 21.36 Z M 21.36 21.36 C 21.36 20.058 20.301 19 19 19 C 17.699 19 16.64 20.059 16.64 21.36 C 16.64 22.661 17.699 23.72 19 23.72 C 20.301 23.72 21.36 22.662 21.36 21.36 Z M 17.36 21.36 C 17.36 20.456 18.095 19.72 19 19.72 C 19.905 19.72 20.64 20.455 20.64 21.36 C 20.64 22.265 19.905 23 19 23 C 18.095 23 17.36 22.264 17.36 21.36 Z M 29.36 21.36 C 29.36 20.058 28.301 19 27 19 C 25.699 19 24.64 20.059 24.64 21.36 C 24.64 22.661 25.699 23.72 27 23.72 C 28.301 23.72 29.36 22.662 29.36 21.36 Z M 25.36 21.36 C 25.36 20.456 26.095 19.72 27 19.72 C 27.905 19.72 28.64 20.455 28.64 21.36 C 28.64 22.265 27.905 23 27 23 C 26.095 23 25.36 22.264 25.36 21.36 Z M 30 17 L 30 17.721 L 0 17.721 L 0 17 L 30 17 Z M 0 25 L 30 25 L 30 25.721 L 0 25.721 L 0 25 Z M 11 15.72 L 19 15.72 C 19.199 15.72 19.36 15.559 19.36 15.36 L 19.36 7.36 C 19.36 7.161 19.199 7 19 7 L 11 7 C 10.801 7 10.64 7.161 10.64 7.36 L 10.64 15.36 C 10.64 15.559 10.801 15.72 11 15.72 Z M 11.36 7.72 L 18.64 7.72 L 18.64 15 L 11.36 15 L 11.36 7.72 Z M 21 8.72 L 29 8.72 C 29.199 8.72 29.36 8.559 29.36 8.36 L 29.36 0.36 C 29.36 0.161 29.199 0 29 0 L 21 0 C 20.801 0 20.64 0.161 20.64 0.36 L 20.64 8.36 C 20.64 8.559 20.801 8.72 21 8.72 Z M 21.36 2.509 L 23.149 0.72 L 25.13 0.72 L 21.36 4.49 L 21.36 2.509 L 21.36 2.509 Z M 21.36 5.509 L 26.149 0.72 L 28.13 0.72 L 21.36 7.49 L 21.36 5.509 L 21.36 5.509 Z M 28.64 6.211 L 26.851 8 L 24.87 8 L 28.64 4.23 L 28.64 6.211 Z M 28.64 3.211 L 23.851 8 L 21.87 8 L 28.64 1.23 L 28.64 3.211 Z M 27.869 8 L 28.64 7.23 L 28.64 8.001 L 27.869 8 Z M 22.131 0.72 L 21.36 1.49 L 21.36 0.72 L 22.131 0.72 Z M 1 15.72 L 9 15.72 C 9.199 15.72 9.36 15.559 9.36 15.36 L 9.36 7.36 C 9.36 7.161 9.199 7 9 7 L 1 7 C 0.801 7 0.64 7.161 0.64 7.36 L 0.64 15.36 C 0.64 15.559 0.801 15.72 1 15.72 Z M 1.36 7.72 L 8.64 7.72 L 8.64 15 L 1.36 15 L 1.36 7.72 Z" fill="currentColor" fill-rule="nonzero"></path>
</svg>