<svg xmlns="http://www.w3.org/2000/svg" width="28.720" height="24.720" viewBox="0 0 28.720 24.720" fill="currentColor">
  <path d="M 28.36 24.72 L 0.36 24.72 C 0.161 24.72 0 24.559 0 24.36 L 0 0.36 C 0 0.161 0.161 0 0.36 0 L 28.36 0 C 28.559 0 28.72 0.161 28.72 0.36 L 28.72 24.36 C 28.72 24.559 28.559 24.72 28.36 24.72 Z M 0.72 24 L 28 24 L 28 18.72 L 0.72 18.72 L 0.72 24 Z M 0.72 18 L 28 18 L 28 12.72 L 0.72 12.72 L 0.72 18 Z M 0.72 12 L 28 12 L 28 6.72 L 0.72 6.72 L 0.72 12 Z M 0.72 6 L 28 6 L 28 0.72 L 0.72 0.72 L 0.72 6 Z M 25.36 22.72 C 24.61 22.72 24 22.11 24 21.36 C 24 20.61 24.61 20 25.36 20 C 26.11 20 26.72 20.61 26.72 21.36 C 26.72 22.11 26.11 22.72 25.36 22.72 Z M 25.36 20.72 C 25.007 20.72 24.72 21.007 24.72 21.36 C 24.72 21.713 25.007 22 25.36 22 C 25.713 22 26 21.713 26 21.36 C 26 21.007 25.713 20.72 25.36 20.72 Z M 25.36 16.72 C 24.61 16.72 24 16.11 24 15.36 C 24 14.61 24.61 14 25.36 14 C 26.11 14 26.72 14.61 26.72 15.36 C 26.72 16.11 26.11 16.72 25.36 16.72 Z M 25.36 14.72 C 25.007 14.72 24.72 15.007 24.72 15.36 C 24.72 15.713 25.007 16 25.36 16 C 25.713 16 26 15.713 26 15.36 C 26 15.007 25.713 14.72 25.36 14.72 Z M 25.36 10.72 C 24.61 10.72 24 10.11 24 9.36 C 24 8.61 24.61 8 25.36 8 C 26.11 8 26.72 8.61 26.72 9.36 C 26.72 10.11 26.11 10.72 25.36 10.72 Z M 25.36 8.72 C 25.007 8.72 24.72 9.007 24.72 9.36 C 24.72 9.713 25.007 10 25.36 10 C 25.713 10 26 9.713 26 9.36 C 26 9.007 25.713 8.72 25.36 8.72 Z M 25.36 4.72 C 24.61 4.72 24 4.11 24 3.36 C 24 2.61 24.61 2 25.36 2 C 26.11 2 26.72 2.61 26.72 3.36 C 26.72 4.11 26.11 4.72 25.36 4.72 Z M 25.36 2.72 C 25.007 2.72 24.72 3.007 24.72 3.36 C 24.72 3.713 25.007 4 25.36 4 C 25.713 4 26 3.713 26 3.36 C 26 3.007 25.713 2.72 25.36 2.72 Z" fill="currentColor" fill-rule="nonzero"></path>
</svg>