<svg xmlns="http://www.w3.org/2000/svg" width="30.720" height="30.720" viewBox="0 0 30.720 30.720" fill="currentColor">
  <path d="M 1.86 2.72 C 0.626 2.72 0 1.926 0 0.36 C 0 0.161 0.161 0 0.36 0 C 0.559 0 0.72 0.161 0.72 0.36 C 0.72 1.801 1.268 2 1.86 2 C 2.938 2 3.72 2.992 3.72 4.36 C 3.72 4.559 3.559 4.72 3.36 4.72 C 3.161 4.72 3 4.559 3 4.36 C 3 3.545 2.609 2.72 1.86 2.72 Z M 2.86 0.72 C 4.16 0.72 5 1.56 5 2.86 C 5 3.059 5.161 3.22 5.36 3.22 C 5.559 3.22 5.72 3.059 5.72 2.86 C 5.72 1.15 4.571 0.001 2.86 0.001 C 2.661 0.001 2.5 0.162 2.5 0.361 C 2.5 0.56 2.661 0.72 2.86 0.72 Z M 9.36 19 C 9.161 19 9 19.161 9 19.36 L 9 21.36 C 9 21.559 9.161 21.72 9.36 21.72 C 9.559 21.72 9.72 21.559 9.72 21.36 L 9.72 19.36 C 9.72 19.161 9.559 19 9.36 19 Z M 30.72 22.554 L 30.72 30.36 C 30.72 30.559 30.559 30.72 30.36 30.72 L 1.36 30.72 C 1.161 30.72 1 30.559 1 30.36 L 1 5.36 C 1 5.161 1.161 5 1.36 5 L 5.36 5 C 5.559 5 5.72 5.161 5.72 5.36 L 5.72 15.716 L 11.672 12.053 C 11.783 11.984 11.923 11.982 12.036 12.045 C 12.15 12.11 12.22 12.23 12.22 12.36 L 12.22 15.74 L 18.681 12.048 C 18.793 11.984 18.929 11.985 19.04 12.049 C 19.151 12.113 19.22 12.232 19.22 12.361 L 19.22 15.717 L 25.171 12.054 C 25.281 11.985 25.422 11.983 25.535 12.046 C 25.649 12.11 25.72 12.23 25.72 12.36 L 25.72 19 L 27.194 19 C 27.67 19 28.874 19.098 29.777 20.003 C 30.405 20.632 30.722 21.491 30.72 22.554 Z M 25.72 21 L 27.095 21 C 27.991 21 28.72 21.72 28.72 22.604 L 28.72 30 L 29.999 30 L 29.999 22.554 C 30.001 21.688 29.755 21.001 29.267 20.512 C 28.773 20.017 27.997 19.721 27.194 19.721 L 25.72 19.721 L 25.72 21 Z M 25.72 21.72 L 25.72 29.999 L 27.999 29.999 L 27.999 22.603 C 27.999 22.116 27.594 21.719 27.095 21.719 L 25.72 21.719 L 25.72 21.72 Z M 1.72 5.72 L 1.72 12 L 5 12 L 5 5.72 L 1.72 5.72 Z M 5 30 L 5 12.72 L 1.72 12.72 L 1.72 30 L 5 30 Z M 5.72 30 L 13 30 L 13 24.36 C 13 24.161 13.161 24 13.36 24 L 17.36 24 C 17.559 24 17.72 24.161 17.72 24.36 L 17.72 30 L 24.999 30 L 24.999 13.004 L 19.048 16.667 C 18.938 16.734 18.798 16.738 18.684 16.675 C 18.571 16.611 18.5 16.491 18.5 16.36 L 18.5 12.98 L 12.039 16.672 C 11.927 16.734 11.791 16.735 11.68 16.671 C 11.568 16.607 11.5 16.488 11.5 16.36 L 11.5 13.004 L 5.72 16.561 L 5.72 30 Z M 17 24.72 L 13.72 24.72 L 13.72 29.999 L 17 29.999 L 17 24.72 Z M 13.36 21.72 C 13.559 21.72 13.72 21.559 13.72 21.36 L 13.72 19.36 C 13.72 19.161 13.559 19 13.36 19 C 13.161 19 13 19.161 13 19.36 L 13 21.36 C 13 21.559 13.161 21.72 13.36 21.72 Z M 17.36 21.72 C 17.559 21.72 17.72 21.559 17.72 21.36 L 17.72 19.36 C 17.72 19.161 17.559 19 17.36 19 C 17.161 19 17 19.161 17 19.36 L 17 21.36 C 17 21.559 17.161 21.72 17.36 21.72 Z M 21.36 21.72 C 21.559 21.72 21.72 21.559 21.72 21.36 L 21.72 19.36 C 21.72 19.161 21.559 19 21.36 19 C 21.161 19 21 19.161 21 19.36 L 21 21.36 C 21 21.559 21.161 21.72 21.36 21.72 Z" fill="currentColor" fill-rule="nonzero"></path>
</svg>