<svg xmlns="http://www.w3.org/2000/svg" width="30.720" height="30.721" viewBox="0 0 30.720 30.721" fill="currentColor">
  <path d="M 21.36 30.721 C 16.319 30.721 12.197 26.715 12.007 21.721 L 8.36 21.721 C 8.161 21.721 8 21.56 8 21.361 L 8 8.361 C 8 8.162 8.161 8.001 8.36 8.001 L 13.36 8.001 C 13.456 8.001 13.547 8.039 13.614 8.106 C 13.682 8.174 13.72 8.265 13.72 8.361 L 13.72 15.956 C 14.34 15.075 15.113 14.305 16 13.69 L 16 0.36 C 16 0.161 16.161 0 16.36 0 L 21.36 0 C 21.456 0 21.548 0.038 21.615 0.105 C 21.682 0.174 21.72 0.266 21.72 0.361 L 21.719 12.008 C 26.714 12.197 30.72 16.32 30.72 21.361 C 30.72 26.522 26.521 30.721 21.36 30.721 Z M 21.36 12.721 C 19.641 12.721 17.982 13.225 16.56 14.18 C 15.34 14.988 14.345 16.106 13.681 17.415 C 13.052 18.624 12.72 19.988 12.72 21.361 C 12.72 26.125 16.596 30.001 21.36 30.001 C 26.124 30.001 30 26.125 30 21.361 C 30 16.597 26.124 12.721 21.36 12.721 Z M 8.72 21.001 L 12.007 21.001 C 12.059 19.666 12.399 18.349 13 17.166 L 13 8.721 L 8.72 8.721 L 8.72 21.001 Z M 16.72 0.721 L 16.719 13.234 C 16.804 13.186 16.889 13.138 16.976 13.092 C 17.591 12.764 18.239 12.508 18.909 12.326 C 19.588 12.142 20.288 12.035 20.999 12.008 L 21 0.721 L 16.72 0.721 Z M 21.72 26.361 L 21 26.361 L 21 24.721 L 18.36 24.721 L 18.36 24.001 L 22.86 24.001 C 23.489 24.001 24 23.49 24 22.861 C 24 22.232 23.489 21.721 22.86 21.721 L 19.859 21.721 C 18.834 21.721 18 20.886 18 19.861 C 18 18.836 18.834 18.001 19.859 18.001 L 21 18.001 L 21 16.361 L 21.721 16.361 L 21.721 18.001 L 24.36 18.001 L 24.36 18.722 L 19.859 18.722 C 19.231 18.722 18.72 19.233 18.72 19.862 C 18.72 20.491 19.231 21.002 19.859 21.002 L 22.86 21.002 C 23.885 21.002 24.72 21.837 24.72 22.862 C 24.72 23.887 23.885 24.722 22.86 24.722 L 21.72 24.722 L 21.72 26.361 Z M 5.36 21.721 L 0.36 21.721 C 0.161 21.721 0 21.56 0 21.361 L 0 14.361 C 0 14.162 0.161 14.001 0.36 14.001 L 5.36 14.001 C 5.559 14.001 5.72 14.162 5.72 14.361 L 5.72 21.361 C 5.72 21.56 5.559 21.721 5.36 21.721 Z M 0.72 21.001 L 5 21.001 L 5 14.721 L 0.72 14.721 L 0.72 21.001 Z" fill="currentColor" fill-rule="nonzero"></path>
</svg>