<svg xmlns="http://www.w3.org/2000/svg" width="22.614" height="30.721" viewBox="0 0 22.614 30.721" fill="currentColor">
  <path d="M 16.254 30.721 L 6.254 30.721 C 6.055 30.721 5.894 30.56 5.894 30.361 L 5.894 13.361 C 5.894 11.252 7.119 9.423 8.894 8.549 L 8.894 4.726 C 8.894 4.326 9.219 4.001 9.619 4.001 L 9.894 4.001 L 9.894 2.721 L 6.403 2.721 L 0.508 8.615 L 0 8.107 L 6 2.107 C 6.067 2.039 6.158 2.001 6.254 2.001 L 9.894 2.001 L 9.894 0.726 C 9.894 0.326 10.219 0.001 10.619 0.001 L 11.889 0.001 C 12.288 0.001 12.615 0.326 12.615 0.726 L 12.615 2.001 L 15.894 2.001 L 15.894 1.361 C 15.894 1.185 16.022 1.035 16.195 1.006 L 22.195 0.006 C 22.303 -0.014 22.407 0.018 22.487 0.086 C 22.567 0.155 22.614 0.255 22.614 0.361 L 22.614 4.361 C 22.614 4.467 22.567 4.567 22.486 4.636 C 22.405 4.703 22.301 4.732 22.194 4.716 L 16.194 3.716 C 16.022 3.687 15.894 3.537 15.894 3.361 L 15.894 2.721 L 12.614 2.721 L 12.614 4.001 L 12.888 4.001 C 13.287 4.001 13.614 4.326 13.614 4.726 L 13.614 8.549 C 15.389 9.424 16.614 11.252 16.614 13.361 L 16.614 30.361 C 16.614 30.56 16.453 30.721 16.254 30.721 Z M 6.614 30.001 L 15.894 30.001 L 15.894 23.721 L 6.614 23.721 L 6.614 30.001 L 6.614 30.001 Z M 6.614 23.001 L 15.894 23.001 L 15.894 15.721 L 6.614 15.721 L 6.614 23.001 L 6.614 23.001 Z M 6.614 15.001 L 15.894 15.001 L 15.894 13.361 C 15.894 10.802 13.813 8.721 11.254 8.721 C 8.695 8.721 6.614 10.803 6.614 13.361 L 6.614 15.001 Z M 11.254 8.001 C 11.826 8.001 12.377 8.091 12.894 8.257 L 12.894 4.726 L 9.619 4.721 L 9.615 8.258 C 10.131 8.091 10.683 8.001 11.254 8.001 Z M 10.614 4.001 L 11.894 4.001 L 11.894 0.726 L 10.619 0.721 L 10.614 4.001 Z M 16.614 3.056 L 21.893 3.936 L 21.893 0.786 L 16.614 1.666 L 16.614 3.056 Z" fill="currentColor" fill-rule="nonzero"></path>
</svg>