<svg xmlns="http://www.w3.org/2000/svg" width="24.720" height="30.360" viewBox="0 0 24.720 30.360" fill="currentColor"><path d="M 0.72 30.36 L 0 30.36 L 0 0.36 C 0 0.161 0.161 0 0.36 0 L 24.36 0 C 24.491 0 24.611 0.071 24.674 0.186 C 24.737 0.3 24.735 0.44 24.665 0.551 L 19.785 8.36 L 24.666 16.169 C 24.735 16.28 24.738 16.419 24.675 16.535 C 24.611 16.649 24.491 16.72 24.36 16.72 L 0.72 16.72 L 0.72 30.36 Z M 0.72 16 L 23.711 16 L 19.055 8.551 C 18.983 8.434 18.983 8.286 19.055 8.169 L 23.711 0.72 L 0.72 0.72 L 0.72 16 Z" fill-rule="nonzero"></path></svg>