<svg xmlns="http://www.w3.org/2000/svg" width="30" height="30.720" viewBox="0 0 30 30.720" fill="currentColor">
  <path d="M 30 30.72 L 0 30.72 L 0 30 L 14.64 30 L 14.64 23.361 C 14.639 23.202 14.58 20.034 11.267 19.026 C 11.053 19.816 10.429 20.72 9 20.72 C 8.912 20.72 6.827 20.696 4.746 18.615 C 4.605 18.474 4.605 18.246 4.746 18.105 C 6.827 16.024 8.912 16 9 16 C 10.823 16 11.336 17.472 11.359 18.301 C 13.101 18.798 14.084 19.832 14.64 20.836 L 14.64 14.36 L 15.36 14.36 L 15.36 20.837 C 15.916 19.833 16.9 18.799 18.641 18.302 C 18.664 17.473 19.177 16.001 21 16.001 C 21.088 16.001 23.173 16.025 25.255 18.106 C 25.396 18.247 25.396 18.475 25.255 18.616 C 23.173 20.696 21.088 20.72 21 20.72 C 19.571 20.72 18.947 19.816 18.733 19.026 C 15.419 20.034 15.36 23.202 15.359 23.361 L 15.359 30 L 30 30 L 30 30.72 Z M 19.434 18.855 C 19.567 19.341 19.944 20 21 20 C 21.017 20 22.712 19.968 24.479 18.36 C 22.715 16.756 21.023 16.72 21 16.72 C 19.729 16.72 19.443 17.672 19.379 18.133 C 19.868 18.047 20.406 17.999 21.001 17.999 L 21.001 18.72 C 20.42 18.72 19.9 18.768 19.434 18.855 Z M 5.521 18.36 C 7.288 19.967 8.983 20 9.001 20 C 10.057 20 10.433 19.343 10.566 18.855 C 10.1 18.768 9.58 18.72 9 18.72 L 9 18 C 9.594 18 10.133 18.048 10.622 18.134 C 10.559 17.674 10.273 16.72 9 16.72 C 8.983 16.72 7.288 16.753 5.521 18.36 Z M 15 14.719 C 13.882 14.719 12.943 13.938 12.701 12.892 C 11.813 13.419 10.58 13.278 9.831 12.527 C 9.386 12.082 9.14 11.489 9.14 10.859 C 9.14 10.43 9.254 10.018 9.467 9.658 C 8.422 9.417 7.64 8.478 7.64 7.36 C 7.64 6.242 8.421 5.302 9.467 5.06 C 9.254 4.7 9.14 4.289 9.14 3.86 C 9.14 3.23 9.386 2.637 9.831 2.192 C 10.607 1.416 11.794 1.294 12.7 1.829 C 12.942 0.782 13.881 0 15 0 C 16.118 0 17.058 0.782 17.3 1.828 C 18.202 1.293 19.391 1.414 20.169 2.191 C 20.614 2.637 20.86 3.23 20.86 3.86 C 20.86 4.289 20.746 4.701 20.533 5.061 C 21.578 5.302 22.36 6.241 22.36 7.36 C 22.36 8.479 21.578 9.417 20.532 9.659 C 20.746 10.019 20.86 10.43 20.86 10.86 C 20.86 11.49 20.614 12.083 20.169 12.528 C 19.42 13.278 18.189 13.42 17.299 12.893 C 17.057 13.938 16.118 14.719 15 14.719 Z M 13.361 12.312 C 13.361 12.328 13.36 12.344 13.36 12.36 C 13.36 13.264 14.096 14 15 14 C 15.904 14 16.64 13.264 16.64 12.36 C 16.64 12.344 16.64 12.329 16.64 12.313 C 16.458 12.082 16.324 11.821 16.24 11.541 C 15.454 11.774 14.548 11.774 13.761 11.541 C 13.677 11.821 13.542 12.081 13.361 12.312 Z M 16.913 11.277 C 16.986 11.558 17.132 11.811 17.34 12.018 C 17.961 12.64 19.04 12.639 19.659 12.019 C 19.97 11.709 20.139 11.297 20.139 10.859 C 20.139 10.421 19.969 10.009 19.659 9.699 C 19.45 9.49 19.197 9.345 18.917 9.273 C 18.49 10.143 17.783 10.85 16.913 11.277 Z M 11.083 9.274 C 10.805 9.347 10.547 9.494 10.34 9.7 C 10.03 10.01 9.86 10.421 9.86 10.859 C 9.86 11.297 10.031 11.709 10.34 12.018 C 10.96 12.638 12.038 12.638 12.658 12.018 C 12.867 11.81 13.012 11.557 13.086 11.276 C 12.217 10.851 11.51 10.143 11.083 9.274 Z M 15 3.719 C 12.993 3.719 11.36 5.352 11.36 7.359 C 11.36 9.366 12.993 10.999 15 10.999 C 17.007 10.999 18.64 9.366 18.64 7.359 C 18.64 5.352 17.007 3.719 15 3.719 Z M 19.95 8.998 L 20 9 C 20.904 9 21.64 8.264 21.64 7.36 C 21.64 6.456 20.905 5.72 20 5.72 L 19.951 5.722 C 19.721 5.903 19.46 6.038 19.18 6.121 C 19.298 6.513 19.36 6.929 19.36 7.36 C 19.36 7.791 19.297 8.207 19.18 8.601 C 19.458 8.684 19.72 8.819 19.95 8.998 Z M 10 5.719 C 9.096 5.719 8.36 6.455 8.36 7.359 C 8.36 8.263 9.096 9 10 9 L 10.05 8.999 C 10.28 8.82 10.542 8.685 10.82 8.601 C 10.703 8.207 10.64 7.791 10.64 7.36 C 10.64 6.93 10.702 6.514 10.819 6.121 C 10.539 6.037 10.279 5.903 10.049 5.722 L 10 5.719 Z M 11.5 2.221 C 11.08 2.221 10.66 2.381 10.34 2.7 C 10.03 3.01 9.86 3.422 9.86 3.86 C 9.86 4.298 10.031 4.71 10.34 5.019 C 10.548 5.228 10.802 5.373 11.082 5.447 C 11.508 4.577 12.216 3.869 13.086 3.443 C 13.013 3.164 12.868 2.91 12.659 2.701 C 12.339 2.381 11.919 2.221 11.5 2.221 Z M 16.913 3.442 C 17.783 3.869 18.491 4.577 18.918 5.446 C 19.197 5.374 19.45 5.228 19.659 5.019 C 19.97 4.709 20.139 4.297 20.139 3.859 C 20.139 3.421 19.969 3.009 19.659 2.699 C 19.02 2.06 17.979 2.06 17.341 2.699 C 17.131 2.909 16.986 3.162 16.913 3.442 Z M 13.36 2.408 C 13.542 2.639 13.677 2.899 13.76 3.179 C 14.546 2.946 15.452 2.946 16.239 3.179 C 16.322 2.899 16.457 2.639 16.638 2.408 L 16.64 2.36 C 16.64 1.456 15.905 0.72 15 0.72 C 14.095 0.72 13.36 1.455 13.36 2.36 C 13.36 2.376 13.36 2.392 13.36 2.408 Z" fill="currentColor" fill-rule="nonzero"></path>
</svg>