<svg xmlns="http://www.w3.org/2000/svg" width="30.720" height="30.720" viewBox="0 0 30.720 30.720" fill="currentColor">
  <path d="M 18.318 30.72 L 12.403 30.72 C 12.204 30.72 12.043 30.559 12.043 30.36 L 12.043 26.727 L 9.675 25.737 L 7.099 28.312 C 6.958 28.453 6.731 28.453 6.59 28.312 L 2.408 24.13 C 2.267 23.989 2.267 23.761 2.408 23.62 L 4.976 21.052 L 4.002 18.677 L 0.36 18.677 C 0.161 18.677 0 18.516 0 18.317 L 0 12.402 C 0 12.203 0.161 12.042 0.36 12.042 L 3.992 12.042 L 4.983 9.674 L 2.408 7.099 C 2.267 6.958 2.267 6.731 2.408 6.59 L 6.59 2.408 C 6.658 2.34 6.749 2.302 6.845 2.302 C 6.941 2.302 7.032 2.34 7.099 2.407 L 9.667 4.976 L 12.042 4.001 L 12.042 0.36 C 12.042 0.161 12.203 0 12.402 0 L 18.317 0 C 18.516 0 18.677 0.161 18.677 0.36 L 18.677 3.992 L 21.044 4.983 L 23.619 2.408 C 23.76 2.267 23.988 2.267 24.129 2.408 L 28.312 6.59 C 28.379 6.657 28.417 6.749 28.417 6.844 C 28.417 6.939 28.379 7.031 28.312 7.098 L 25.743 9.666 L 26.718 12.041 L 30.36 12.041 C 30.559 12.041 30.72 12.202 30.72 12.401 L 30.72 18.316 C 30.72 18.515 30.559 18.676 30.36 18.676 L 26.727 18.676 L 25.737 21.044 L 28.313 23.619 C 28.38 23.686 28.418 23.778 28.418 23.874 C 28.418 23.97 28.38 24.062 28.313 24.129 L 24.13 28.311 C 23.989 28.452 23.761 28.452 23.62 28.311 L 21.052 25.743 L 18.678 26.717 L 18.678 30.36 C 18.678 30.559 18.517 30.72 18.318 30.72 Z M 12.763 30 L 17.958 30 L 17.958 26.477 C 17.958 26.331 18.047 26.2 18.182 26.144 L 21.001 24.988 C 21.135 24.931 21.289 24.964 21.393 25.066 L 23.876 27.549 L 27.55 23.876 L 25.058 21.385 C 24.955 21.281 24.924 21.126 24.981 20.991 L 26.157 18.179 C 26.213 18.045 26.344 17.957 26.489 17.957 L 30.001 17.957 L 30.001 12.763 L 26.479 12.763 C 26.333 12.763 26.202 12.675 26.146 12.54 L 24.989 9.72 C 24.934 9.586 24.965 9.431 25.067 9.329 L 27.551 6.846 L 23.877 3.173 L 21.386 5.664 C 21.282 5.767 21.126 5.798 20.992 5.742 L 18.18 4.566 C 18.046 4.51 17.958 4.379 17.958 4.234 L 17.958 0.72 L 12.763 0.72 L 12.763 4.243 C 12.763 4.389 12.675 4.521 12.54 4.576 L 9.72 5.733 C 9.585 5.788 9.431 5.757 9.329 5.654 L 6.845 3.172 L 3.172 6.844 L 5.663 9.336 C 5.767 9.439 5.797 9.595 5.741 9.73 L 4.564 12.542 C 4.508 12.676 4.377 12.763 4.232 12.763 L 0.72 12.763 L 0.72 17.957 L 4.244 17.957 C 4.39 17.957 4.522 18.046 4.577 18.181 L 5.734 21.001 C 5.789 21.136 5.758 21.29 5.655 21.393 L 3.172 23.876 L 6.845 27.549 L 9.337 25.058 C 9.44 24.954 9.597 24.925 9.73 24.981 L 12.542 26.157 C 12.676 26.213 12.763 26.344 12.763 26.489 L 12.763 30 Z M 15.36 22.72 C 11.302 22.72 8 19.418 8 15.36 C 8 11.302 11.302 8 15.36 8 C 19.419 8 22.72 11.302 22.72 15.36 C 22.72 19.419 19.419 22.72 15.36 22.72 Z M 15.36 8.72 C 11.699 8.72 8.72 11.699 8.72 15.36 C 8.72 19.021 11.699 22 15.36 22 C 19.021 22 22 19.021 22 15.36 C 22 11.699 19.021 8.72 15.36 8.72 Z" fill="currentColor" fill-rule="nonzero"></path>
</svg>