<svg xmlns="http://www.w3.org/2000/svg" width="30.720" height="26.720" viewBox="0 0 30.720 26.720" fill="currentColor">
  <path d="M 22.86 26.72 L 7.86 26.72 C 7.731 26.72 7.612 26.651 7.548 26.539 L 0.048 13.529 C -0.016 13.418 -0.016 13.28 0.048 13.169 L 7.548 0.179 C 7.612 0.068 7.732 0 7.86 0 L 22.86 0 C 22.989 0 23.107 0.068 23.172 0.18 L 30.672 13.17 C 30.736 13.281 30.736 13.419 30.672 13.53 L 23.172 26.54 C 23.108 26.651 22.989 26.72 22.86 26.72 Z M 8.484 26 L 22.237 26 L 15.36 14.08 L 8.484 26 Z M 15.978 13.71 L 22.86 25.639 L 29.737 13.71 L 15.978 13.71 Z M 0.983 13.71 L 7.86 25.639 L 14.742 13.71 L 0.983 13.71 Z M 15.989 12.99 L 29.736 12.99 L 22.86 1.08 L 15.989 12.99 Z M 0.984 12.99 L 14.732 12.99 L 7.86 1.08 L 0.984 12.99 Z M 8.484 0.72 L 15.36 12.64 L 22.237 0.72 C 22.237 0.72 8.484 0.72 8.484 0.72 Z" fill="currentColor" fill-rule="nonzero"></path>
</svg>