<svg xmlns="http://www.w3.org/2000/svg" width="30.721" height="26.538" viewBox="0 0 30.721 26.538" fill="currentColor">
  <path d="M 11.672 26.538 L 11.047 26.181 L 14.739 19.72 L 11.36 19.72 C 11.232 19.72 11.113 19.652 11.048 19.54 C 10.983 19.428 10.983 19.292 11.047 19.181 L 15.047 12.181 L 15.672 12.538 L 11.98 18.999 L 15.36 18.999 C 15.488 18.999 15.607 19.067 15.672 19.179 C 15.737 19.291 15.737 19.427 15.673 19.538 L 11.672 26.538 Z M 18.36 16.719 L 18.36 15.999 L 24.787 15.999 C 27.709 15.968 30 13.743 30 10.933 C 30 8.058 27.662 5.719 24.787 5.719 C 24.151 5.719 23.368 5.834 22.882 5.999 C 22.699 6.062 22.502 5.968 22.431 5.789 C 21.251 2.757 18.38 0.719 15.287 0.719 C 11.458 0.719 8.034 3.988 7.653 8.006 C 7.641 8.128 7.569 8.235 7.461 8.292 C 7.352 8.348 7.222 8.346 7.117 8.285 C 6.469 7.915 5.734 7.72 4.992 7.72 C 2.637 7.72 0.721 9.648 0.721 12.018 C 0.721 14.293 2.519 15.968 4.997 15.999 L 8.35 15.999 L 8.35 16.72 L 4.991 16.72 C 2.097 16.682 0 14.705 0 12.018 C 0 9.251 2.239 7 4.991 7 C 5.682 7 6.368 7.145 7.001 7.422 C 7.648 3.284 11.262 0 15.287 0 C 18.568 0 21.619 2.085 22.976 5.223 C 23.575 5.07 24.285 5 24.787 5 C 28.058 5 30.721 7.662 30.721 10.934 C 30.721 14.143 28.117 16.684 24.791 16.721 L 18.36 16.721 L 18.36 16.719 Z" fill="currentColor" fill-rule="nonzero"></path>
</svg>