<svg xmlns="http://www.w3.org/2000/svg" width="30.720" height="30.720" viewBox="0 0 30.720 30.720" fill="currentColor">
  <path d="M 15.36 30.72 C 6.89 30.72 0 23.83 0 15.36 C 0 6.89 6.89 0 15.36 0 C 23.83 0 30.72 6.89 30.72 15.36 C 30.72 23.83 23.83 30.72 15.36 30.72 Z M 15.36 0.72 C 7.287 0.72 0.72 7.287 0.72 15.36 C 0.72 23.432 7.287 30 15.36 30 C 23.432 30 30 23.433 30 15.36 C 30 7.287 23.432 0.72 15.36 0.72 Z M 4.282 22.172 L 3.922 21.549 L 4.788 21.049 L 5.148 21.672 L 4.282 22.172 Z M 26.439 22.172 L 22.54 19.921 L 22.899 19.298 L 26.798 21.549 L 26.439 22.172 Z M 28.36 15.72 L 24.36 15.72 L 24.36 15 L 28.36 15 L 28.36 15.72 Z M 3.86 15.72 L 2.36 15.72 L 2.36 15 L 3.86 15 L 3.86 15.72 Z M 15.54 15.672 L 15.18 15.048 L 26.439 8.548 L 26.798 9.172 L 15.54 15.672 Z M 5.68 10.187 L 3.922 9.172 L 4.282 8.548 L 6.04 9.564 L 5.68 10.187 Z M 20.291 7.54 L 19.668 7.18 L 21.549 3.922 L 22.172 4.282 L 20.291 7.54 Z M 9.852 6.54 L 8.548 4.282 L 9.172 3.922 L 10.476 6.18 L 9.852 6.54 Z M 15.72 5.36 L 15 5.36 L 15 2.36 L 15.72 2.36 L 15.72 5.36 Z" fill="currentColor" fill-rule="nonzero"></path>
</svg>