<svg xmlns="http://www.w3.org/2000/svg" width="30.720" height="30.720" viewBox="0 0 30.720 30.720" fill="currentColor">
  <path d="M 30.72 15.36 C 30.72 23.83 23.829 30.72 15.36 30.72 C 11.257 30.72 7.4 29.122 4.499 26.221 L 5.008 25.711 C 7.688 28.392 11.224 29.904 15 29.995 L 15 26.36 L 15.72 26.36 L 15.72 29.996 C 19.485 29.904 22.902 28.385 25.45 25.959 L 22.884 23.394 L 23.394 22.884 L 25.959 25.45 C 28.385 22.902 29.904 19.485 29.996 15.72 L 26.36 15.72 L 26.36 15 L 29.996 15 C 29.904 11.234 28.385 7.817 25.959 5.271 L 23.394 7.836 L 22.884 7.327 L 25.45 4.761 C 22.902 2.335 19.485 0.815 15.72 0.724 L 15.72 4.36 L 15 4.36 L 15 0.724 C 11.234 0.815 7.817 2.335 5.271 4.761 L 7.836 7.327 L 7.327 7.836 L 4.761 5.271 C 2.258 7.899 0.72 11.453 0.72 15.36 C 0.72 17.645 1.257 19.908 2.276 21.934 L 9.106 15.105 C 9.247 14.964 9.474 14.964 9.615 15.105 L 12.36 17.851 L 20.491 9.72 L 17.36 9.72 L 17.36 9 L 21.72 9 L 21.72 13.36 L 21 13.36 L 21 10.23 L 12.615 18.615 C 12.474 18.756 12.247 18.756 12.106 18.615 L 9.36 15.869 L 2.439 22.789 C 2.359 22.868 2.249 22.906 2.135 22.891 C 2.023 22.875 1.926 22.808 1.87 22.71 C 0.641 20.449 0 17.918 0 15.36 C 0 6.89 6.89 0 15.36 0 C 23.83 0 30.72 6.89 30.72 15.36 Z" fill="currentColor" fill-rule="nonzero"></path>
</svg>