<svg xmlns="http://www.w3.org/2000/svg" width="30.721" height="30.720" viewBox="0 0 30.721 30.720" fill="currentColor">
  <path d="M 16.74 22.72 L 13.98 22.72 C 13.781 22.72 13.62 22.559 13.62 22.36 L 13.62 20.793 L 12.751 20.43 L 11.64 21.541 C 11.573 21.608 11.481 21.646 11.386 21.646 C 11.29 21.646 11.199 21.608 11.132 21.541 L 9.18 19.589 C 9.039 19.448 9.039 19.22 9.18 19.079 L 10.288 17.972 L 9.931 17.101 L 8.36 17.101 C 8.161 17.101 8 16.94 8 16.741 L 8 13.981 C 8 13.782 8.161 13.621 8.36 13.621 L 9.927 13.621 L 10.29 12.752 L 9.18 11.64 C 9.04 11.499 9.04 11.272 9.18 11.131 L 11.131 9.179 C 11.266 9.043 11.505 9.043 11.64 9.179 L 12.748 10.288 L 13.62 9.931 L 13.62 8.36 C 13.62 8.161 13.781 8 13.98 8 L 16.74 8 C 16.939 8 17.1 8.161 17.1 8.36 L 17.1 9.927 L 17.968 10.29 L 19.078 9.179 C 19.213 9.044 19.453 9.043 19.588 9.179 L 21.54 11.131 C 21.607 11.198 21.645 11.29 21.645 11.385 C 21.645 11.481 21.607 11.572 21.54 11.639 L 20.431 12.747 L 20.788 13.619 L 22.36 13.619 C 22.559 13.619 22.72 13.78 22.72 13.979 L 22.72 16.739 C 22.72 16.938 22.559 17.099 22.36 17.099 L 20.793 17.099 L 20.43 17.967 L 21.541 19.077 C 21.608 19.144 21.646 19.236 21.646 19.332 C 21.646 19.428 21.608 19.52 21.541 19.587 L 19.589 21.539 C 19.522 21.606 19.43 21.644 19.334 21.644 C 19.238 21.644 19.146 21.606 19.079 21.539 L 17.972 20.43 L 17.101 20.787 L 17.101 22.36 C 17.1 22.559 16.939 22.72 16.74 22.72 Z M 14.34 22 L 16.38 22 L 16.38 20.548 C 16.38 20.402 16.469 20.271 16.604 20.215 L 17.92 19.675 C 18.054 19.618 18.208 19.651 18.312 19.753 L 19.334 20.777 L 20.777 19.334 L 19.749 18.308 C 19.646 18.204 19.615 18.049 19.672 17.914 L 20.222 16.602 C 20.278 16.468 20.409 16.38 20.554 16.38 L 22 16.38 L 22 14.34 L 20.548 14.34 C 20.402 14.34 20.271 14.252 20.215 14.117 L 19.675 12.801 C 19.62 12.667 19.651 12.512 19.753 12.41 L 20.777 11.387 L 19.334 9.944 L 18.308 10.971 C 18.204 11.074 18.049 11.106 17.914 11.049 L 16.602 10.5 C 16.468 10.444 16.38 10.313 16.38 10.168 L 16.38 8.72 L 14.34 8.72 L 14.34 10.172 C 14.34 10.318 14.252 10.45 14.117 10.505 L 12.801 11.045 C 12.666 11.099 12.513 11.069 12.41 10.966 L 11.387 9.943 L 9.945 11.386 L 10.972 12.414 C 11.075 12.517 11.106 12.673 11.049 12.808 L 10.5 14.12 C 10.444 14.254 10.313 14.341 10.168 14.341 L 8.72 14.341 L 8.72 16.381 L 10.172 16.381 C 10.318 16.381 10.45 16.47 10.505 16.605 L 11.045 17.921 C 11.1 18.056 11.069 18.21 10.966 18.313 L 9.944 19.335 L 11.386 20.778 L 12.414 19.75 C 12.518 19.646 12.673 19.617 12.808 19.673 L 14.12 20.223 C 14.254 20.279 14.341 20.41 14.341 20.555 L 14.34 22 Z M 15.36 18.72 C 13.507 18.72 12 17.212 12 15.36 C 12 13.508 13.507 12 15.36 12 C 17.213 12 18.72 13.507 18.72 15.36 C 18.72 17.213 17.213 18.72 15.36 18.72 Z M 15.36 12.72 C 13.904 12.72 12.72 13.905 12.72 15.36 C 12.72 16.816 13.905 18 15.36 18 C 16.816 18 18 16.816 18 15.36 C 18 13.904 16.816 12.72 15.36 12.72 Z M 15.36 30.72 C 10.831 30.72 6.644 28.787 3.72 25.382 L 3.72 29.36 L 3 29.36 L 3 24 L 8.36 24 L 8.36 24.721 L 4.103 24.721 C 6.896 28.085 10.958 30 15.36 30 C 23.432 30 30 23.433 30 15.36 L 30.721 15.36 C 30.72 23.83 23.83 30.72 15.36 30.72 Z M 0.72 15.36 L 0 15.36 C 0 6.89 6.89 0 15.36 0 C 19.889 0 24.076 1.933 27 5.337 L 27 1.36 L 27.721 1.36 L 27.721 6.72 L 22.36 6.72 L 22.36 6 L 26.617 6 C 23.824 2.635 19.761 0.72 15.36 0.72 C 7.287 0.72 0.72 7.287 0.72 15.36 Z" fill="currentColor" fill-rule="nonzero"></path>
</svg>