<svg xmlns="http://www.w3.org/2000/svg" width="30.720" height="30.720" viewBox="0 0 30.720 30.720" fill="currentColor">
  <path d="M 15.36 30.72 C 6.89 30.72 0 23.83 0 15.36 C 0 6.89 6.89 0 15.36 0 C 18.781 0 22.006 1.094 24.705 3.168 C 24.899 3.061 25.123 3 25.36 3 C 26.11 3 26.72 3.61 26.72 4.36 C 26.72 4.552 26.68 4.735 26.608 4.901 C 29.262 7.752 30.72 11.455 30.72 15.36 C 30.72 23.83 23.83 30.72 15.36 30.72 Z M 15.72 11.672 L 15.72 29.996 C 17.213 29.96 18.649 29.699 20 29.247 L 20 8.672 C 19.425 8.514 19 7.986 19 7.36 C 19 6.61 19.61 6 20.36 6 C 21.11 6 21.72 6.61 21.72 7.36 C 21.72 7.985 21.295 8.513 20.72 8.672 L 20.72 28.984 C 22.298 28.361 23.743 27.47 24.999 26.37 L 24.999 5.672 C 24.424 5.514 23.999 4.986 23.999 4.36 C 23.999 4.111 24.066 3.878 24.184 3.677 C 21.63 1.741 18.586 0.72 15.36 0.72 C 7.287 0.72 0.72 7.287 0.72 15.36 C 0.72 19.39 2.357 23.045 5 25.694 L 5 17.672 C 4.424 17.514 4 16.985 4 16.36 C 4 15.61 4.61 15 5.36 15 C 6.11 15 6.72 15.61 6.72 16.36 C 6.72 16.985 6.296 17.513 5.72 17.672 L 5.72 26.37 C 6.976 27.471 8.422 28.361 10 28.984 L 10 14.672 C 9.424 14.514 9 13.986 9 13.36 C 9 12.61 9.61 12 10.36 12 C 11.11 12 11.72 12.61 11.72 13.36 C 11.72 13.985 11.296 14.513 10.72 14.672 L 10.72 29.247 C 12.071 29.699 13.508 29.96 15 29.996 L 15 11.672 C 14.424 11.514 14 10.986 14 10.36 C 14 9.61 14.61 9 15.36 9 C 16.11 9 16.72 9.61 16.72 10.36 C 16.72 10.985 16.296 11.513 15.72 11.672 Z M 25.72 5.672 L 25.72 25.694 C 28.364 23.045 30 19.39 30 15.36 C 30 11.672 28.636 8.173 26.15 5.466 C 26.022 5.558 25.877 5.629 25.72 5.672 Z M 5.36 15.72 C 5.007 15.72 4.72 16.007 4.72 16.36 C 4.72 16.713 5.007 17 5.36 17 C 5.713 17 6 16.713 6 16.36 C 6 16.007 5.713 15.72 5.36 15.72 Z M 10.36 12.72 C 10.007 12.72 9.72 13.007 9.72 13.36 C 9.72 13.713 10.007 14 10.36 14 C 10.713 14 11 13.713 11 13.36 C 11 13.007 10.713 12.72 10.36 12.72 Z M 15.36 9.72 C 15.007 9.72 14.72 10.007 14.72 10.36 C 14.72 10.713 15.007 11 15.36 11 C 15.713 11 16 10.713 16 10.36 C 16 10.007 15.713 9.72 15.36 9.72 Z M 20.36 6.72 C 20.007 6.72 19.72 7.007 19.72 7.36 C 19.72 7.713 20.007 8 20.36 8 C 20.713 8 21 7.713 21 7.36 C 21 7.007 20.713 6.72 20.36 6.72 Z M 25.36 3.72 C 25.007 3.72 24.72 4.007 24.72 4.36 C 24.72 4.713 25.007 5 25.36 5 C 25.713 5 26 4.713 26 4.36 C 26 4.007 25.713 3.72 25.36 3.72 Z" fill="currentColor" fill-rule="nonzero"></path>
</svg>