<svg xmlns="http://www.w3.org/2000/svg" width="30.720" height="30.720" viewBox="0 0 30.720 30.720" fill="currentColor">
  <path d="M 30.36 30.72 L 0.36 30.72 C 0.161 30.72 0 30.559 0 30.36 L 0 0.36 C 0 0.161 0.161 0 0.36 0 L 30.36 0 C 30.559 0 30.72 0.161 30.72 0.36 L 30.72 30.36 C 30.72 30.559 30.559 30.72 30.36 30.72 Z M 0.72 30 L 30 30 L 30 9.229 L 16.615 22.615 C 16.473 22.756 16.246 22.756 16.106 22.615 L 9.36 15.869 L 0.72 24.509 C 0.72 24.509 0.72 30 0.72 30 Z M 0.72 8.72 L 0.72 23.491 L 9.106 15.106 C 9.247 14.965 9.474 14.965 9.615 15.106 L 16.36 21.851 L 29.491 8.72 L 0.72 8.72 Z M 0.72 8 L 30 8 L 30 0.72 L 0.72 0.72 L 0.72 8 Z" fill="currentColor" fill-rule="nonzero"></path>
</svg>