<svg xmlns="http://www.w3.org/2000/svg" width="26.720" height="30.721" viewBox="0 0 26.720 30.721" fill="currentColor">
  <path d="M 13.36 30.721 C 13.301 30.721 13.243 30.705 13.189 30.677 L 0.189 23.677 C 0.073 23.615 0 23.493 0 23.361 L 0 7.36 C 0 7.228 0.073 7.107 0.189 7.043 L 13.189 0.043 C 13.296 -0.014 13.423 -0.014 13.531 0.043 L 26.531 7.043 C 26.647 7.107 26.72 7.228 26.72 7.36 L 26.72 23.361 C 26.72 23.493 26.647 23.615 26.531 23.677 L 13.531 30.677 C 13.477 30.706 13.419 30.721 13.36 30.721 Z M 0.72 23.146 L 13.36 29.951 L 26 23.146 L 26 7.576 L 13.36 0.77 L 0.72 7.576 L 0.72 23.146 Z M 19.72 23.361 L 19 23.361 L 19 19.361 C 19 17.028 17.529 14.908 15.34 14.086 C 15.212 14.038 15.122 13.92 15.109 13.785 C 15.096 13.649 15.161 13.516 15.277 13.444 C 16.356 12.771 17.001 11.619 17.001 10.362 C 17.001 8.355 15.368 6.721 13.361 6.721 C 11.354 6.721 9.721 8.355 9.721 10.362 C 9.721 11.619 10.366 12.771 11.445 13.444 C 11.561 13.517 11.626 13.649 11.613 13.785 C 11.599 13.92 11.509 14.038 11.381 14.086 C 9.192 14.908 7.721 17.028 7.721 19.361 L 7.721 23.361 L 7 23.361 L 7 19.361 C 7 16.945 8.397 14.733 10.535 13.668 C 9.564 12.845 9 11.649 9 10.361 C 9 7.957 10.956 6 13.36 6 C 15.764 6 17.72 7.957 17.72 10.361 C 17.72 11.649 17.156 12.845 16.185 13.668 C 18.323 14.733 19.72 16.945 19.72 19.361 L 19.72 23.361 Z" fill="currentColor" fill-rule="nonzero"></path>
</svg>