<svg xmlns="http://www.w3.org/2000/svg" width="30.721" height="29.720" viewBox="0 0 30.721 29.720" fill="currentColor">
  <path d="M 30.36 29.72 L 0.36 29.72 C 0.161 29.72 0 29.559 0 29.36 L 0 24.36 L 0.72 24.36 L 0.72 29 L 30 29 L 30 24.36 L 30.721 24.36 L 30.721 29.36 C 30.72 29.559 30.559 29.72 30.36 29.72 Z M 20.36 26.72 C 19.61 26.72 19 26.11 19 25.36 C 19 24.61 19.61 24 20.36 24 C 21.11 24 21.72 24.61 21.72 25.36 C 21.72 26.11 21.11 26.72 20.36 26.72 Z M 20.36 24.72 C 20.007 24.72 19.72 25.007 19.72 25.36 C 19.72 25.713 20.007 26 20.36 26 C 20.713 26 21 25.713 21 25.36 C 21 25.007 20.713 24.72 20.36 24.72 Z M 16.36 26.72 C 15.61 26.72 15 26.11 15 25.36 C 15 24.61 15.61 24 16.36 24 C 17.11 24 17.72 24.61 17.72 25.36 C 17.72 26.11 17.11 26.72 16.36 26.72 Z M 16.36 24.72 C 16.007 24.72 15.72 25.007 15.72 25.36 C 15.72 25.713 16.007 26 16.36 26 C 16.713 26 17 25.713 17 25.36 C 17 25.007 16.713 24.72 16.36 24.72 Z M 12.36 26.72 C 11.61 26.72 11 26.11 11 25.36 C 11 24.61 11.61 24 12.36 24 C 13.11 24 13.72 24.61 13.72 25.36 C 13.72 26.11 13.11 26.72 12.36 26.72 Z M 12.36 24.72 C 12.007 24.72 11.72 25.007 11.72 25.36 C 11.72 25.713 12.007 26 12.36 26 C 12.713 26 13 25.713 13 25.36 C 13 25.007 12.713 24.72 12.36 24.72 Z M 8.36 26.72 C 7.61 26.72 7 26.11 7 25.36 C 7 24.61 7.61 24 8.36 24 C 9.11 24 9.72 24.61 9.72 25.36 C 9.72 26.11 9.11 26.72 8.36 26.72 Z M 8.36 24.72 C 8.007 24.72 7.72 25.007 7.72 25.36 C 7.72 25.713 8.007 26 8.36 26 C 8.713 26 9 25.713 9 25.36 C 9 25.007 8.713 24.72 8.36 24.72 Z M 4.36 26.72 C 3.61 26.72 3 26.11 3 25.36 C 3 24.61 3.61 24 4.36 24 C 5.11 24 5.72 24.61 5.72 25.36 C 5.72 26.11 5.11 26.72 4.36 26.72 Z M 4.36 24.72 C 4.007 24.72 3.72 25.007 3.72 25.36 C 3.72 25.713 4.007 26 4.36 26 C 4.713 26 5 25.713 5 25.36 C 5 25.007 4.713 24.72 4.36 24.72 Z M 30.36 21.72 L 0.36 21.72 C 0.161 21.72 0 21.559 0 21.36 L 0 16.36 L 0.72 16.36 L 0.72 21 L 30 21 L 30 16.36 L 30.721 16.36 L 30.721 21.36 C 30.72 21.559 30.559 21.72 30.36 21.72 Z M 16.36 18.72 C 15.61 18.72 15 18.11 15 17.36 C 15 16.61 15.61 16 16.36 16 C 17.11 16 17.72 16.61 17.72 17.36 C 17.72 18.11 17.11 18.72 16.36 18.72 Z M 16.36 16.72 C 16.007 16.72 15.72 17.007 15.72 17.36 C 15.72 17.713 16.007 18 16.36 18 C 16.713 18 17 17.713 17 17.36 C 17 17.007 16.713 16.72 16.36 16.72 Z M 12.36 18.72 C 11.61 18.72 11 18.11 11 17.36 C 11 16.61 11.61 16 12.36 16 C 13.11 16 13.72 16.61 13.72 17.36 C 13.72 18.11 13.11 18.72 12.36 18.72 Z M 12.36 16.72 C 12.007 16.72 11.72 17.007 11.72 17.36 C 11.72 17.713 12.007 18 12.36 18 C 12.713 18 13 17.713 13 17.36 C 13 17.007 12.713 16.72 12.36 16.72 Z M 8.36 18.72 C 7.61 18.72 7 18.11 7 17.36 C 7 16.61 7.61 16 8.36 16 C 9.11 16 9.72 16.61 9.72 17.36 C 9.72 18.11 9.11 18.72 8.36 18.72 Z M 8.36 16.72 C 8.007 16.72 7.72 17.007 7.72 17.36 C 7.72 17.713 8.007 18 8.36 18 C 8.713 18 9 17.713 9 17.36 C 9 17.007 8.713 16.72 8.36 16.72 Z M 4.36 18.72 C 3.61 18.72 3 18.11 3 17.36 C 3 16.61 3.61 16 4.36 16 C 5.11 16 5.72 16.61 5.72 17.36 C 5.72 18.11 5.11 18.72 4.36 18.72 Z M 4.36 16.72 C 4.007 16.72 3.72 17.007 3.72 17.36 C 3.72 17.713 4.007 18 4.36 18 C 4.713 18 5 17.713 5 17.36 C 5 17.007 4.713 16.72 4.36 16.72 Z M 30.36 13.72 L 0.36 13.72 C 0.161 13.72 0 13.559 0 13.36 L 0 8.36 L 0.72 8.36 L 0.72 13 L 30 13 L 30 8.36 L 30.721 8.36 L 30.721 13.36 C 30.72 13.559 30.559 13.72 30.36 13.72 Z M 12.36 10.72 C 11.61 10.72 11 10.11 11 9.36 C 11 8.61 11.61 8 12.36 8 C 13.11 8 13.72 8.61 13.72 9.36 C 13.72 10.11 13.11 10.72 12.36 10.72 Z M 12.36 8.72 C 12.007 8.72 11.72 9.007 11.72 9.36 C 11.72 9.713 12.007 10 12.36 10 C 12.713 10 13 9.713 13 9.36 C 13 9.007 12.713 8.72 12.36 8.72 Z M 8.36 10.72 C 7.61 10.72 7 10.11 7 9.36 C 7 8.61 7.61 8 8.36 8 C 9.11 8 9.72 8.61 9.72 9.36 C 9.72 10.11 9.11 10.72 8.36 10.72 Z M 8.36 8.72 C 8.007 8.72 7.72 9.007 7.72 9.36 C 7.72 9.713 8.007 10 8.36 10 C 8.713 10 9 9.713 9 9.36 C 9 9.007 8.713 8.72 8.36 8.72 Z M 4.36 10.72 C 3.61 10.72 3 10.11 3 9.36 C 3 8.61 3.61 8 4.36 8 C 5.11 8 5.72 8.61 5.72 9.36 C 5.72 10.11 5.11 10.72 4.36 10.72 Z M 4.36 8.72 C 4.007 8.72 3.72 9.007 3.72 9.36 C 3.72 9.713 4.007 10 4.36 10 C 4.713 10 5 9.713 5 9.36 C 5 9.007 4.713 8.72 4.36 8.72 Z M 30.36 5.72 L 0.36 5.72 C 0.161 5.72 0 5.559 0 5.36 L 0 0.36 L 0.72 0.36 L 0.72 5 L 30 5 L 30 0.36 L 30.721 0.36 L 30.721 5.36 C 30.72 5.559 30.559 5.72 30.36 5.72 Z M 8.36 2.72 C 7.61 2.72 7 2.11 7 1.36 C 7 0.61 7.61 0 8.36 0 C 9.11 0 9.72 0.61 9.72 1.36 C 9.72 2.11 9.11 2.72 8.36 2.72 Z M 8.36 0.72 C 8.007 0.72 7.72 1.007 7.72 1.36 C 7.72 1.713 8.007 2 8.36 2 C 8.713 2 9 1.713 9 1.36 C 9 1.007 8.713 0.72 8.36 0.72 Z M 4.36 2.72 C 3.61 2.72 3 2.11 3 1.36 C 3 0.61 3.61 0 4.36 0 C 5.11 0 5.72 0.61 5.72 1.36 C 5.72 2.11 5.11 2.72 4.36 2.72 Z M 4.36 0.72 C 4.007 0.72 3.72 1.007 3.72 1.36 C 3.72 1.713 4.007 2 4.36 2 C 4.713 2 5 1.713 5 1.36 C 5 1.007 4.713 0.72 4.36 0.72 Z" fill="currentColor" fill-rule="nonzero"></path>
</svg>