<svg xmlns="http://www.w3.org/2000/svg" width="30.720" height="30.720" viewBox="0 0 30.720 30.720" fill="currentColor">
  <path d="M 15.36 30.72 C 6.89 30.72 0 23.83 0 15.36 C 0 6.89 6.89 0 15.36 0 C 23.83 0 30.72 6.89 30.72 15.36 C 30.72 23.83 23.83 30.72 15.36 30.72 Z M 15 27.36 L 15.72 27.36 L 15.72 29.996 C 23.508 29.808 29.807 23.508 29.996 15.72 L 27.36 15.72 L 27.36 15 L 29.996 15 C 29.807 7.213 23.507 0.913 15.72 0.724 L 15.72 3.36 L 15 3.36 L 15 0.724 C 7.213 0.913 0.913 7.213 0.724 15 L 3.36 15 L 3.36 15.72 L 0.724 15.72 C 0.913 23.508 7.212 29.807 15 29.996 L 15 27.36 Z M 22.108 19.672 L 15 15.568 L 15 5.36 L 15.72 5.36 L 15.72 15.152 L 22.468 19.048 L 22.108 19.672 Z" fill="currentColor" fill-rule="nonzero"></path>
</svg>