<svg xmlns="http://www.w3.org/2000/svg" width="30.959" height="30.961" viewBox="0 0 30.959 30.961" fill="currentColor">
  <path d="M 24.608 30.961 C 22.955 30.961 21.323 30.317 20.103 29.099 C 18.406 27.401 17.813 24.875 18.561 22.606 L 8.354 12.401 C 6.083 13.148 3.56 12.554 1.863 10.858 C -0.041 8.955 -0.541 6.045 0.619 3.618 C 0.669 3.513 0.767 3.438 0.883 3.418 C 1.001 3.4 1.116 3.436 1.198 3.519 L 5.2 7.521 C 5.84 8.159 6.88 8.16 7.52 7.521 C 8.159 6.881 8.159 5.841 7.52 5.201 L 3.518 1.199 C 3.435 1.116 3.398 0.999 3.417 0.884 C 3.437 0.769 3.511 0.671 3.617 0.62 C 6.044 -0.541 8.953 -0.04 10.856 1.863 C 12.554 3.561 13.148 6.087 12.398 8.357 L 22.604 18.562 C 24.875 17.81 27.4 18.406 29.097 20.104 C 30.999 22.007 31.499 24.916 30.34 27.344 C 30.289 27.449 30.191 27.524 30.075 27.543 C 29.967 27.565 29.844 27.525 29.76 27.443 L 25.758 23.441 C 25.119 22.802 24.078 22.802 23.44 23.441 C 22.8 24.081 22.8 25.121 23.44 25.759 L 27.442 29.761 C 27.524 29.844 27.562 29.961 27.542 30.076 C 27.522 30.191 27.448 30.29 27.343 30.341 C 26.471 30.758 25.537 30.961 24.608 30.961 Z M 8.448 11.627 C 8.542 11.627 8.634 11.664 8.702 11.732 L 19.23 22.256 C 19.33 22.356 19.362 22.504 19.313 22.636 C 18.548 24.698 19.058 27.035 20.613 28.589 C 22.177 30.153 24.509 30.649 26.555 29.894 L 22.931 26.27 C 22.012 25.35 22.012 23.853 22.931 22.932 C 23.855 22.014 25.351 22.015 26.269 22.932 L 29.893 26.556 C 30.648 24.509 30.153 22.178 28.588 20.614 C 27.034 19.059 24.699 18.549 22.635 19.314 C 22.503 19.362 22.356 19.331 22.255 19.231 L 11.73 8.706 C 11.63 8.607 11.598 8.458 11.647 8.326 C 12.413 6.264 11.902 3.927 10.348 2.372 C 8.784 0.808 6.452 0.312 4.405 1.068 L 8.029 4.692 C 8.473 5.136 8.717 5.729 8.717 6.361 C 8.717 6.993 8.472 7.586 8.028 8.029 C 7.14 8.918 5.578 8.917 4.691 8.029 L 1.067 4.406 C 0.312 6.452 0.807 8.784 2.371 10.349 C 3.925 11.903 6.263 12.413 8.323 11.649 C 8.364 11.634 8.406 11.627 8.448 11.627 Z M 2.338 30.721 C 2.246 30.721 2.153 30.685 2.084 30.616 L 0.341 28.873 C 0.205 28.737 0.2 28.519 0.329 28.376 L 3.265 25.147 C 3.331 25.074 3.424 25.032 3.523 25.029 C 3.6 25.029 3.716 25.065 3.786 25.134 L 4.55 25.898 L 12.026 18.421 L 12.535 18.931 L 5.059 26.408 L 5.822 27.171 C 5.892 27.241 5.93 27.336 5.927 27.435 C 5.924 27.534 5.882 27.626 5.809 27.693 L 2.58 30.629 C 2.512 30.69 2.425 30.721 2.338 30.721 Z M 1.093 28.606 L 2.35 29.864 L 5.045 27.413 L 3.543 25.911 L 1.093 28.606 Z M 20.841 13.999 L 20.331 13.49 L 29.642 4.179 C 30.026 3.796 30.237 3.287 30.237 2.746 C 30.237 2.205 30.026 1.696 29.642 1.313 C 28.854 0.525 27.568 0.523 26.778 1.313 L 17.467 10.624 L 16.957 10.115 L 26.268 0.804 C 27.306 -0.234 29.116 -0.232 30.152 0.804 C 30.671 1.323 30.957 2.012 30.957 2.746 C 30.957 3.48 30.671 4.169 30.152 4.688 L 20.841 13.999 Z M 19.154 12.312 L 18.644 11.803 L 27.926 2.521 L 28.436 3.03 L 19.154 12.312 Z" fill="currentColor" fill-rule="nonzero"></path>
</svg>