<svg xmlns="http://www.w3.org/2000/svg" width="30.720" height="30.360" viewBox="0 0 30.720 30.360" fill="currentColor">
  <path d="M 30.72 30.36 L 30 30.36 C 30 23.928 25.223 18.128 18.641 16.568 C 18.491 16.532 18.38 16.405 18.366 16.251 C 18.351 16.098 18.437 15.952 18.578 15.889 C 21.439 14.616 23.288 11.773 23.288 8.648 C 23.288 4.277 19.732 0.721 15.361 0.721 C 10.989 0.721 7.433 4.277 7.433 8.648 C 7.433 11.773 9.282 14.616 12.144 15.889 C 12.285 15.952 12.37 16.098 12.356 16.251 C 12.342 16.405 12.231 16.532 12.081 16.568 C 5.497 18.128 0.72 23.928 0.72 30.36 L 0 30.36 C 0 23.9 4.574 18.048 11.002 16.112 C 8.368 14.573 6.711 11.737 6.711 8.647 C 6.711 3.879 10.59 0 15.359 0 C 20.127 0 24.006 3.879 24.006 8.647 C 24.006 11.737 22.35 14.573 19.716 16.112 C 26.146 18.048 30.72 23.9 30.72 30.36 Z" fill="currentColor" fill-rule="nonzero"></path>
</svg>