<svg xmlns="http://www.w3.org/2000/svg" width="30.720" height="22.720" viewBox="0 0 30.720 22.720" fill="currentColor">
  <path d="M 15.36 22.72 C 14.702 22.72 14.152 22.25 14.027 21.629 C 6.532 20.847 0.352 13.897 0.089 13.597 C -0.03 13.461 -0.03 13.258 0.089 13.122 C 0.352 12.822 6.532 5.872 14.027 5.089 C 14.152 4.469 14.702 4 15.36 4 C 16.018 4 16.567 4.469 16.693 5.09 C 24.187 5.872 30.368 12.823 30.631 13.123 C 30.75 13.259 30.75 13.462 30.631 13.598 C 30.368 13.898 24.188 20.848 16.693 21.63 C 16.567 22.251 16.018 22.72 15.36 22.72 Z M 15.36 20.72 C 15.007 20.72 14.72 21.007 14.72 21.36 C 14.72 21.713 15.007 22 15.36 22 C 15.713 22 16 21.713 16 21.36 C 16 21.007 15.713 20.72 15.36 20.72 Z M 15.72 20.048 C 16.145 20.164 16.488 20.484 16.637 20.894 C 20.287 20.28 23 17.097 23 13.36 C 23 9.622 20.287 6.44 16.638 5.826 C 16.489 6.236 16.146 6.555 15.721 6.671 L 15.721 10.019 C 17.405 10.199 18.721 11.629 18.721 13.36 C 18.721 15.091 17.405 16.521 15.721 16.701 L 15.72 20.048 Z M 14.082 5.826 C 10.433 6.44 7.72 9.622 7.72 13.36 C 7.72 17.097 10.433 20.28 14.082 20.894 C 14.232 20.484 14.575 20.165 15 20.048 L 15 16.7 C 13.316 16.52 12 15.091 12 13.359 C 12 11.628 13.316 10.198 15 10.018 L 15 6.672 C 14.575 6.555 14.233 6.236 14.082 5.826 Z M 20.549 6.806 C 22.49 8.348 23.72 10.728 23.72 13.36 C 23.72 15.992 22.491 18.373 20.549 19.914 C 25.245 18.058 28.952 14.335 29.87 13.36 C 28.953 12.385 25.246 8.663 20.549 6.806 Z M 0.849 13.36 C 1.767 14.335 5.474 18.057 10.17 19.914 C 8.23 18.373 7 15.992 7 13.36 C 7 10.728 8.229 8.347 10.17 6.806 C 5.475 8.663 1.767 12.385 0.849 13.36 Z M 15.36 10.72 C 13.904 10.72 12.72 11.905 12.72 13.36 C 12.72 14.816 13.905 16 15.36 16 C 16.816 16 18 14.816 18 13.36 C 18 11.904 16.816 10.72 15.36 10.72 Z M 15.36 4.72 C 15.007 4.72 14.72 5.007 14.72 5.36 C 14.72 5.713 15.007 6 15.36 6 C 15.713 6 16 5.713 16 5.36 C 16 5.007 15.713 4.72 15.36 4.72 Z M 30.105 7.614 C 30.037 7.546 23.114 0.72 15.36 0.72 C 7.599 0.72 0.684 7.546 0.614 7.615 L 0.106 7.106 C 0.396 6.815 7.303 0 15.36 0 C 23.417 0 30.325 6.815 30.615 7.105 L 30.105 7.614 Z" fill="currentColor" fill-rule="nonzero"></path>
</svg>